<?xml version="1.0" encoding="utf-8"?>
<!-- Generator: Adobe Illustrator 23.0.1, SVG Export Plug-In . SVG Version: 6.00 Build 0)  -->
<svg version="1.1" id="Layer_2" xmlns="http://www.w3.org/2000/svg" xmlns:xlink="http://www.w3.org/1999/xlink" x="0px" y="0px"
	 viewBox="0 0 150 150" style="enable-background:new 0 0 150 150;" xml:space="preserve">
<path d="M117.28,99.5l-74.62,0c-2.09,0-3.98-1.24-4.81-3.16L8,27.7c-1.04-2.4-0.22-5.3,2.06-6.56c2.62-1.45,5.86-0.31,7.02,2.37
	l27.32,62.84c0.83,1.92,2.72,3.16,4.81,3.16h68.28c2.92,0,5.26,2.51,4.98,5.49C122.23,97.59,119.9,99.5,117.28,99.5z"/>
<polygon points="141.54,35.5 137.2,45.5 33.8,45.5 29.46,35.5 "/>
<polygon points="133.5,54 129.15,64 41.85,64 37.5,54 "/>
<polygon points="125.46,72.5 121.11,82.5 49.89,82.5 45.54,72.5 "/>
<circle cx="51" cy="115.5" r="10"/>
<circle cx="107.5" cy="116" r="10"/>
</svg>
