<svg xmlns="http://www.w3.org/2000/svg" xmlns:xlink="http://www.w3.org/1999/xlink" version="1.1" id="Layer_1" x="0px" y="0px" viewBox="0 0 45.4 45.4" style="enable-background:new 0 0 45.4 45.4;" xml:space="preserve">
<style type="text/css">
	.st0{display:none;}
	.st1{display:inline;}
	.st2{fill:none;stroke:#3f51b5;stroke-width:4;stroke-linecap:round;stroke-linejoin:round;stroke-miterlimit:10;}
	.st3{fill:none;stroke:#2b3850;stroke-width:4;stroke-linecap:round;stroke-linejoin:round;}
	.st4{display:inline;fill:none;stroke:#2F5D95;stroke-width:4;stroke-linecap:round;stroke-linejoin:round;stroke-miterlimit:10;}
	.st5{fill:none;stroke:#94B65B;stroke-width:4;stroke-linecap:round;stroke-linejoin:round;stroke-dasharray:0.6996;}
	.st6{fill:none;stroke:#94B65B;stroke-width:4;stroke-linecap:round;stroke-linejoin:round;stroke-miterlimit:10;}
	.st7{fill:none;stroke:#2F5D95;stroke-width:4;stroke-linecap:round;stroke-linejoin:round;}
	
		.st8{fill:none;stroke:#2F5D95;stroke-width:4;stroke-linecap:round;stroke-linejoin:round;stroke-miterlimit:10;stroke-dasharray:2,7;}
	.st9{display:inline;fill:none;stroke:#94B65B;stroke-width:4;stroke-linecap:round;stroke-linejoin:round;stroke-miterlimit:10;}
</style>
<g id="_x31_" class="st0">
	<g class="st1">
		
			<rect x="5.2" y="3.8" transform="matrix(3.267948e-07 1 -1 3.267948e-07 44.3676 -0.9868)" class="st2" width="35" height="35.8"/>
	</g>
	<g class="st1">
		
			<rect x="5.2" y="3.8" transform="matrix(3.267948e-07 1 -1 3.267948e-07 44.3676 -0.9868)" class="st2" width="35" height="35.8"/>
		<g>
			<line class="st2" x1="12.3" y1="11" x2="19.3" y2="11"/>
			<g>
				<g>
					<line class="st3" x1="25" y1="11" x2="26" y2="11"/>
					<line class="st3" x1="31.7" y1="11" x2="32.7" y2="11"/>
				</g>
			</g>
		</g>
		
			<rect x="15.7" y="14.1" transform="matrix(3.267942e-07 1 -1 3.267942e-07 47.3449 1.9407)" class="st2" width="14" height="21.1"/>
	</g>
	<g class="st1">
		<line class="st2" x1="11.2" y1="41.2" x2="12.7" y2="41.2"/>
		<line class="st2" x1="32.7" y1="41.2" x2="34.2" y2="41.2"/>
	</g>
</g>
<g id="_x32_" class="st0">
	<g class="st1">
		<rect x="5.2" y="3.8" class="st2" width="35" height="35.8"/>
	</g>
	<rect x="5.2" y="3.8" class="st4" width="35" height="35.8"/>
	<g class="st1">
		<line class="st2" x1="22.9" y1="31.1" x2="22.9" y2="19.8"/>
		<line class="st2" x1="27.8" y1="28.3" x2="18" y2="22.6"/>
		<line class="st2" x1="27.8" y1="22.6" x2="18" y2="28.3"/>
	</g>
	<g class="st1">
		<g>
			<line class="st3" x1="26.2" y1="11.2" x2="27.2" y2="11.2"/>
			<line class="st3" x1="32.9" y1="11.2" x2="33.9" y2="11.2"/>
		</g>
	</g>
	<g class="st1">
		<line class="st2" x1="11" y1="41.5" x2="12.5" y2="41.5"/>
		<line class="st2" x1="32.5" y1="41.5" x2="34" y2="41.5"/>
	</g>
	<line class="st4" x1="5.7" y1="11.2" x2="20" y2="11.2"/>
</g>
<g id="_x33_" class="st0">
	<g class="st1">
		<line class="st5" x1="11" y1="28.7" x2="10.9" y2="28"/>
	</g>
	<line class="st4" x1="12.7" y1="41.4" x2="11.8" y2="34.4"/>
	<line class="st4" x1="34.9" y1="29.7" x2="27.7" y2="29.7"/>
	<line class="st4" x1="22.5" y1="22.1" x2="34.9" y2="22.1"/>
	<rect x="35.9" y="19.7" class="st4" width="6.1" height="12.4"/>
	<polyline class="st4" points="30.7,10.5 30.7,22.1 24.6,22.1 24.6,11  "/>
	<path class="st4" d="M38.4,3.8c0,0-1.7,6.6-6.1,6.6c-19.8,0-22.2-6.6-22.2-6.6s13.3,0,21.5,0"/>
	<path class="st4" d="M5.6,41.6h26.3c0,0-3.9-14.7-9.4-19.5s-11.1-4.6-15-1.8s-4.1,4.8-4.1,4.8L5.6,41.6z"/>
</g>
<g id="_x34_" class="st0">
	<g class="st1">
		<rect x="5.2" y="3.8" class="st2" width="35" height="35.8"/>
	</g>
	<g class="st1">
		<rect x="5.2" y="3.8" class="st2" width="35" height="35.8"/>
		<g>
			<line class="st2" x1="12" y1="32.1" x2="12" y2="25.1"/>
			<g>
				<g>
					<line class="st3" x1="12" y1="19.4" x2="12" y2="18.4"/>
					<line class="st3" x1="12" y1="12.6" x2="12" y2="11.6"/>
				</g>
			</g>
		</g>
		<rect x="18.6" y="11.1" class="st2" width="14" height="21.1"/>
	</g>
	<g class="st1">
		<line class="st2" x1="11" y1="41.5" x2="12.5" y2="41.5"/>
		<line class="st2" x1="32.5" y1="41.5" x2="34" y2="41.5"/>
	</g>
	<line class="st4" x1="19.4" y1="21.9" x2="32" y2="21.9"/>
</g>
<g id="_x35_" class="st0">
	<g class="st1">
		<polygon class="st6" points="11.3,18 11.3,28.2 11.3,28.2 13.7,31.5 22.2,31.5 24.6,28.2 24.6,28.2 24.6,18   "/>
		<path class="st6" d="M10.3,19.9H6.6c-1.7,0-3,1.4-3,3V23c0,1.7,1.4,3,3,3"/>
	</g>
	<line class="st4" x1="17.5" y1="12.5" x2="17.5" y2="10.1"/>
	<g class="st1">
		<g>
			<g>
				<line class="st7" x1="14" y1="36.7" x2="15" y2="36.7"/>
				<line class="st7" x1="20.8" y1="36.7" x2="21.8" y2="36.7"/>
			</g>
		</g>
	</g>
	<polyline class="st4" points="17.5,10 35.5,10 28.5,31.5 8.8,31.5 8.8,41.6 41.8,41.6 41.8,3.8 8.8,3.8 11.8,10  "/>
</g>
<g id="_x36_" class="st0">
	<g class="st1">
		<rect x="5.4" y="3.8" class="st2" width="35" height="35.8"/>
	</g>
	<g class="st1">
		<g>
			<rect x="4.9" y="3.8" class="st2" width="35" height="35.8"/>
			<g>
				<g>
					<line class="st3" x1="26" y1="11.2" x2="27" y2="11.2"/>
					<line class="st3" x1="32.7" y1="11.2" x2="33.7" y2="11.2"/>
				</g>
			</g>
			<g>
				<line class="st2" x1="10.7" y1="41.5" x2="12.2" y2="41.5"/>
				<line class="st2" x1="32.2" y1="41.5" x2="33.7" y2="41.5"/>
			</g>
			<line class="st2" x1="5.5" y1="11.2" x2="19.7" y2="11.2"/>
		</g>
		<path class="st2" d="M25.8,24.2L25.8,24.2l-3.3-4.6l-3.3,4.6l0,0c-0.6,0.8-1,1.7-1,2.8c0,2.4,1.9,4.3,4.3,4.3    c2.4,0,4.3-1.9,4.3-4.3C26.8,25.9,26.4,24.9,25.8,24.2z"/>
	</g>
</g>
<g id="_x37_" class="st0">
	<g class="st1">
		<circle class="st2" cx="35.9" cy="37.3" r="4.2"/>
		<path class="st2" d="M39.2,27.8v-8.8V19h-1.1c-9,0-16.3,7.3-16.3,16.3v4.9h0.8h9.6"/>
		<path class="st8" d="M34.1,25.1c-1.7,0.5-3.2,1.5-4.4,2.8c-1.6,1.8-2.5,4.1-2.5,6.6"/>
	</g>
	<line class="st9" x1="5.2" y1="41.5" x2="15.4" y2="41.5"/>
	<line class="st9" x1="11" y1="39.8" x2="13.7" y2="20.4"/>
	<path class="st4" d="M14.7,14.4c0-6.4,4.9-10.6,10.6-10.6S35.6,9,35.6,15.4V19"/>
</g>
<g id="_x38_" class="st0">
	<g class="st1">
		<path class="st2" d="M18,37.2c0,2.6,2.1,4.7,4.7,4.7s4.7-2.1,4.7-4.7c0-2.6-2.1-4.7-4.7-4.7v-5.2l4.4,0h13.1V9.3h-35v17.9h11.5"/>
	</g>
	<rect x="13.7" y="3.5" class="st4" width="18" height="5.7"/>
	<g class="st1">
		<line class="st6" x1="11.3" y1="17.9" x2="20.3" y2="17.9"/>
		<g>
			<g>
				<line class="st7" x1="26" y1="17.9" x2="27" y2="17.9"/>
				<line class="st7" x1="32.8" y1="17.9" x2="33.8" y2="17.9"/>
			</g>
		</g>
	</g>
</g>
<g id="_x39_" class="st0">
	<g class="st1">
		<line class="st2" x1="40.2" y1="41.6" x2="40.2" y2="4.1"/>
		<line class="st2" x1="5.2" y1="4.1" x2="5.2" y2="41.6"/>
	</g>
	<line class="st4" x1="22.7" y1="4.1" x2="22.7" y2="34.6"/>
	<g class="st1">
		<line class="st6" x1="29.1" y1="14.4" x2="34.1" y2="14.4"/>
		<line class="st2" x1="23.1" y1="24.4" x2="39.1" y2="24.4"/>
	</g>
	<g class="st1">
		<line class="st2" x1="5.8" y1="3.9" x2="39.1" y2="3.9"/>
		<line class="st2" x1="6" y1="34.9" x2="39.3" y2="34.9"/>
	</g>
</g>
<g id="_x31_0">
	<g>
		<line class="st2" x1="5.2" y1="3.8" x2="5.2" y2="41.6"/>
		<line class="st2" x1="40.2" y1="41.6" x2="40.2" y2="3.8"/>
	</g>
	<line class="st2" x1="7.1" y1="16.5" x2="38.6" y2="16.5"/>
	<line class="st2" x1="7.1" y1="29" x2="38.6" y2="29"/>
	<g>
		<line class="st2" x1="5.8" y1="3.8" x2="40.2" y2="3.8"/>
		<line class="st2" x1="6" y1="41.6" x2="39.3" y2="41.6"/>
	</g>
	<g>
		<g>
			<line class="st3" x1="11.6" y1="10.1" x2="12.6" y2="10.1"/>
			<line class="st3" x1="18.3" y1="10.1" x2="19.3" y2="10.1"/>
		</g>
	</g>
	<g>
		<g>
			<line class="st3" x1="11.6" y1="35.4" x2="12.6" y2="35.4"/>
			<line class="st3" x1="18.3" y1="35.4" x2="19.3" y2="35.4"/>
		</g>
	</g>
	<g>
		<g>
			<line class="st3" x1="25.7" y1="22.9" x2="26.7" y2="22.9"/>
			<line class="st3" x1="32.4" y1="22.9" x2="33.4" y2="22.9"/>
		</g>
	</g>
</g>
</svg>